PathFileType	4	(X/Y/Z)	OpenSim_Sub06_CSStiffKnee_Magnet.trc
DataRate	CameraRate	NumFrames	NumMarkers	Units	OrigDataRate	OrigDataStartFrame	OrigNumFrames
100	100	13	8	m	100	2687	7164
Frame#	Time	torso_imu_offset_imu	pelvis_imu_offset_imu	tibia_r_imu_offset_imu	femur_r_imu_offset_imu	tibia_l_imu_offset_imu	femur_l_imu_offset_imu	toes_r_imu_offset_imu	toes_l_imu_offset_imu
				X1	Y1	Z1	X2	Y2	Z2	X3	Y3	Z3	X4	Y4	Z4	X5	Y5	Z5	X6	Y6	Z6	X7	Y7	Z7	X8		Y8	Z8	

2687	26.86000000	-0.91701303	-0.12508280	0.18259425	-0.44186285	0.21308133	-0.78950672	-0.18735618	-0.78284723	-0.21870286	-0.72620436	-0.41847225	-0.00063822	-0.68792006	0.43512330	0.05709990	-0.46298575	0.12417874	0.42056143	-0.64473952	-0.60047009	-0.12933513	-0.69801486	-0.10698543	-0.42972358
2688	26.87000000	-0.91402598	-0.13549779	0.17959508	-0.44089005	0.22588640	-0.79307410	-0.17342306	-0.77908458	-0.22978451	-0.72958438	-0.40953703	-0.00850047	-0.68412840	0.44018314	0.06311768	-0.45665270	0.13162476	0.42540106	-0.63037470	-0.62086010	-0.10491754	-0.69816186	-0.10498013	-0.42987491
2689	26.88000000	-0.91927735	-0.13142629	0.18097080	-0.43961141	0.23233683	-0.79094658	-0.15483275	-0.78324477	-0.23916817	-0.74092069	-0.39665568	-0.02066893	-0.67308464	0.44712592	0.05851793	-0.45866772	0.14529749	0.43622812	-0.61677532	-0.63791287	-0.07294223	-0.70051053	-0.10519761	-0.42709684
2690	26.89000000	-0.91976065	-0.13556659	0.18124394	-0.43737313	0.23862949	-0.78393000	-0.15014096	-0.77745933	-0.23948501	-0.75263865	-0.38859467	-0.02416936	-0.68241668	0.44500645	0.05758922	-0.46339643	0.15868554	0.43551175	-0.59837283	-0.65331496	-0.04700939	-0.69862317	-0.10563873	-0.42688342
2691	26.90000000	-0.91722087	-0.13169969	0.17820921	-0.43798061	0.24345227	-0.78647493	-0.14834157	-0.78021983	-0.24821000	-0.74922207	-0.37999322	-0.02415469	-0.67529972	0.45310729	0.06498932	-0.45874487	0.17425878	0.43125065	-0.58531846	-0.66169968	-0.04729883	-0.69494599	-0.10830564	-0.42305188
2692	26.91000000	-0.91578426	-0.13225065	0.17932085	-0.43651114	0.25030700	-0.78824690	-0.13280559	-0.77970146	-0.26018392	-0.75709014	-0.36651143	-0.03168187	-0.68002209	0.45249710	0.06243610	-0.45760346	0.18945538	0.42441859	-0.58102166	-0.66800361	-0.06057839	-0.69989158	-0.10957256	-0.42494000
2693	26.92000000	-0.91588956	-0.13869731	0.17459328	-0.44107048	0.24699120	-0.77893912	-0.12815669	-0.77957226	-0.26917800	-0.76034126	-0.35796326	-0.03241054	-0.67904058	0.45443670	0.07704519	-0.45579991	0.19956871	0.43422370	-0.57242033	-0.66426368	-0.07637325	-0.70419283	-0.11099950	-0.41558937
2694	26.93000000	-0.91536753	-0.13861426	0.17433599	-0.43669109	0.25537680	-0.78475693	-0.12357280	-0.77159530	-0.27484612	-0.76720392	-0.35010060	-0.02985278	-0.67252832	0.45468710	0.08224805	-0.45280958	0.20044387	0.43447513	-0.56736025	-0.66483713	-0.09287590	-0.70196042	-0.11488289	-0.41609165
2695	26.94000000	-0.91737840	-0.13798589	0.17578043	-0.43758158	0.25974108	-0.78455651	-0.12024681	-0.76241524	-0.28784920	-0.77167793	-0.34569372	-0.02878246	-0.67203293	0.46155530	0.08012101	-0.44897481	0.20390116	0.43453563	-0.56295384	-0.66262579	-0.11190697	-0.70493081	-0.11833631	-0.41702582
2696	26.95000000	-0.91835038	-0.14284963	0.17231379	-0.43307864	0.25822052	-0.78717850	-0.13099051	-0.76039629	-0.30564303	-0.77048505	-0.33030069	-0.02807796	-0.67171681	0.46802207	0.08861832	-0.44685540	0.21173283	0.43428603	-0.55967506	-0.66445048	-0.12027152	-0.70630698	-0.12369697	-0.41044921
2697	26.96000000	-0.91343232	-0.14767290	0.16988678	-0.42936172	0.25847770	-0.78555892	-0.13567317	-0.74705655	-0.32871278	-0.77857250	-0.32307253	-0.02427906	-0.66902197	0.46719482	0.08535687	-0.44673083	0.21901068	0.43441924	-0.56078267	-0.65498791	-0.13373778	-0.70544205	-0.12289674	-0.40679481
2698	26.97000000	-0.91411595	-0.15303242	0.17285500	-0.43468168	0.26458736	-0.78578820	-0.14430758	-0.74033019	-0.34766741	-0.78118488	-0.31717333	-0.02628975	-0.66783202	0.47173550	0.08802707	-0.44669096	0.22394532	0.43881985	-0.56375540	-0.64532356	-0.15237505	-0.70360385	-0.12293874	-0.40668716
2699	26.98000000	-0.90712402	-0.15487125	0.17528474	-0.43022065	0.26575537	-0.78828123	-0.15524824	-0.73295491	-0.36271188	-0.78713569	-0.30774014	-0.03181852	-0.66663486	0.47589097	0.09422621	-0.44168983	0.22925255	0.44257514	-0.57268088	-0.63129294	-0.16639355	-0.70410439	-0.11886276	-0.40255498
